# xmcd
#
# Track frame offsets:
#	150
#	11370
#	26334
#	36277
#	48745
#	60360
#	76803
#	90137
#	104219
#	114631
#	128653
#	141951
#	154200
#
# Disc length: 2253 seconds
#
# Revision: 0
# Processed by: cddbd v1.5.2PL0 Copyright (c) Steve Scherf et al.
# Submitted via: EasyCDDAExtractor 9.1.3.1
#
DISCID=9f08cb0d
DTITLE=Newfound Road - Life In A Song
DYEAR=2006
DGENRE=Bluegrass
TTITLE0=Cold Blue Day
TTITLE1=Douglas Graves
TTITLE2=Handsome Molly
TTITLE3=Nothing's Missing
TTITLE4=Life In A Song
TTITLE5=In My Sleep
TTITLE6=I Miss You
TTITLE7=A Picture Of Your Mother
TTITLE8=No Clue
TTITLE9=When I Get Home
TTITLE10=Before The Next Teardrop Falls
TTITLE11=Leave My Woman Alone
TTITLE12=Houston (I'm Comin' To See You)
EXTD=
EXTT0=
EXTT1=
EXTT2=
EXTT3=
EXTT4=
EXTT5=
EXTT6=
EXTT7=
EXTT8=
EXTT9=
EXTT10=
EXTT11=
EXTT12=
PLAYORDER=
